<?xml version="1.0" standalone="no"?>
<!DOCTYPE svg PUBLIC "-//W3C//DTD SVG 20010904//EN"
 "http://www.w3.org/TR/2001/REC-SVG-20010904/DTD/svg10.dtd">
<svg version="1.0" xmlns="http://www.w3.org/2000/svg"
 width="300.000000pt" height="183.000000pt" viewBox="0 0 300.000000 183.000000"
 preserveAspectRatio="xMidYMid meet">
<metadata>
Created by potrace 1.15, written by Peter Selinger 2001-2017
</metadata>
<g transform="translate(0.000000,183.000000) scale(0.100000,-0.100000)"
fill="#000000" stroke="none">
<path d="M1635 1696 c-8 -63 10 -112 58 -152 l30 -25 -17 -37 c-24 -53 -46
-141 -46 -183 0 -23 -5 -36 -13 -36 -23 0 -221 -56 -234 -66 -7 -5 -13 -18
-13 -29 0 -17 -2 -18 -15 -4 -29 28 -54 27 -187 -10 -160 -44 -168 -48 -168
-80 0 -24 -1 -24 -22 -10 -32 23 -49 21 -184 -24 l-122 -41 -6 -42 c-5 -31 -3
-44 8 -52 11 -9 12 -21 5 -60 -16 -91 -17 -93 -41 -88 -25 4 -87 -29 -92 -50
-17 -65 -21 -68 -98 -102 -42 -18 -75 -28 -73 -21 18 55 125 524 125 549 0 38
-15 57 -44 57 -11 0 -73 -21 -137 -46 l-118 -46 -17 -50 c-13 -41 -14 -52 -3
-59 7 -4 17 -5 23 -2 5 4 6 -4 2 -18 -61 -219 -178 -717 -179 -764 -2 -58 -1
-60 25 -63 14 -2 45 6 68 18 49 25 90 41 90 35 0 -2 -27 -18 -60 -36 -33 -17
-77 -46 -97 -65 -36 -31 -37 -33 -21 -50 16 -16 22 -15 115 14 202 64 562 165
688 193 336 74 837 129 1183 129 82 0 82 0 82 26 0 40 -119 152 -206 195 -63
32 -77 34 -181 37 -132 4 -252 -12 -463 -64 -171 -42 -569 -173 -725 -239
-151 -64 -157 -65 -35 -3 71 36 109 61 117 78 7 14 13 19 13 13 0 -22 45 -25
90 -5 25 11 88 34 140 51 52 18 101 37 108 43 6 6 13 31 13 57 2 43 2 44 8 12
10 -53 29 -59 110 -33 39 13 71 28 71 34 0 5 7 7 17 4 9 -4 30 -2 47 3 17 6
50 15 74 21 36 9 42 14 42 37 0 25 1 26 14 8 13 -18 19 -19 87 -7 41 7 78 17
83 22 4 4 14 6 20 4 11 -4 143 20 151 28 2 2 9 63 16 136 l13 132 30 -37 c64
-79 164 -157 189 -148 10 4 13 -2 12 -22 -4 -46 -26 -85 -47 -80 -10 3 -16 1
-12 -4 3 -5 -4 -9 -15 -9 -12 0 -21 -4 -21 -9 0 -5 36 -8 79 -7 43 0 77 4 74
9 -2 4 -13 7 -24 7 -28 0 -35 29 -15 63 14 24 14 32 4 40 -9 6 -8 7 5 3 10 -3
21 -6 23 -6 3 0 2 -5 -1 -10 -3 -6 2 -13 12 -17 28 -11 52 -45 53 -75 0 -18
-11 -35 -37 -56 -37 -29 -37 -30 -10 -25 15 3 30 9 33 14 11 19 20 8 16 -21
-6 -42 4 -38 19 8 6 20 17 40 23 44 8 6 8 8 0 8 -7 0 -15 12 -18 26 -8 31 25
63 65 64 32 0 34 -2 213 -270 76 -113 149 -213 162 -224 19 -14 35 -17 64 -13
26 3 43 1 50 -8 18 -22 76 -38 97 -27 13 7 26 6 43 -4 49 -27 130 -12 130 24
0 9 -111 134 -246 277 -241 254 -245 260 -219 268 l27 9 -35 37 c-23 22 -56
83 -91 161 -87 196 -154 284 -330 436 -63 55 -42 128 35 123 21 -2 41 0 45 3
10 11 -33 73 -60 87 -13 7 -33 26 -45 42 -46 62 -130 78 -238 45 -76 -23 -111
-16 -126 24 -16 43 -25 37 -32 -24z m30 -467 c4 -11 4 -23 1 -26 -3 -4 -6 1
-6 10 0 22 -17 21 -130 -11 -72 -21 -96 -32 -98 -46 -3 -11 0 -16 7 -12 22 14
21 -22 -8 -239 -15 -121 -25 -224 -21 -228 4 -5 33 -4 63 3 l55 11 12 102 c13
115 18 137 30 137 17 0 20 -35 9 -121 -6 -49 -8 -93 -5 -97 6 -9 105 5 118 17
3 3 11 58 17 121 14 143 20 169 31 150 4 -7 4 -20 0 -29 -5 -9 -14 -68 -20
-131 -6 -63 -14 -118 -18 -121 -17 -14 -124 -31 -135 -20 -7 7 -7 39 0 108 10
91 10 125 -1 92 -3 -8 -10 -60 -16 -116 l-12 -102 -50 -10 c-60 -13 -85 -14
-92 -2 -5 8 37 369 50 434 4 21 2 27 -11 27 -12 0 -15 7 -13 27 3 26 10 29
113 59 61 17 113 32 117 33 4 0 10 -8 13 -20z m-1158 -76 c8 -20 -2 -70 -73
-367 -30 -126 -52 -231 -49 -234 2 -3 46 12 97 34 92 39 93 40 105 85 9 32 21
49 39 57 37 17 44 15 44 -15 0 -34 -49 -295 -58 -310 -9 -15 -504 -243 -526
-243 -17 0 -18 6 -13 53 4 28 47 214 97 412 49 198 90 366 90 373 0 6 -9 12
-19 12 -19 0 -19 3 -7 37 12 34 18 39 122 79 122 48 142 51 151 27z m852 7
c35 -18 44 -61 32 -155 -6 -47 -13 -91 -17 -97 -4 -5 -8 -56 -10 -112 -5 -151
-8 -157 -83 -179 -44 -13 -67 -15 -74 -8 -7 7 -8 43 -1 112 5 55 6 103 2 106
-5 2 -8 -6 -9 -19 0 -13 -6 -68 -12 -122 l-12 -99 -58 -20 c-99 -33 -99 -34
-67 238 23 197 25 239 9 230 -7 -5 -9 4 -7 26 l3 32 130 38 c149 42 150 42
174 29z m-357 -117 c29 -34 29 -64 2 -289 l-27 -226 -46 -20 c-25 -11 -57 -20
-71 -21 -23 -2 -25 1 -24 43 0 25 3 79 7 120 5 60 3 52 -13 -40 -10 -63 -19
-121 -19 -128 -1 -13 -100 -62 -126 -62 -27 0 -25 40 15 260 46 253 45 250 25
250 -12 0 -14 7 -9 28 4 15 7 28 8 28 1 1 48 17 106 37 120 41 151 44 172 20z"/>
<path d="M361 1116 c-69 -28 -107 -49 -112 -61 -11 -30 -10 -35 5 -29 8 3 16
1 20 -4 3 -5 -37 -177 -88 -383 -105 -417 -115 -469 -95 -468 8 0 126 53 264
118 l250 117 27 139 c15 77 27 150 27 162 1 20 -1 21 -24 11 -17 -8 -29 -25
-37 -56 -13 -45 -14 -45 -113 -88 -55 -23 -103 -40 -107 -38 -14 9 -9 35 58
315 37 153 64 284 61 293 -9 22 -17 20 -136 -28z"/>
<path d="M1196 1121 c-129 -37 -152 -51 -123 -74 14 -11 13 -37 -11 -244 -14
-128 -23 -236 -19 -239 3 -3 32 3 64 13 l58 20 13 123 c7 69 15 126 18 129 2
3 11 -2 20 -10 13 -14 13 -28 3 -107 -15 -122 -14 -124 53 -105 29 8 56 18 60
22 3 3 12 50 18 104 9 74 9 102 0 112 -9 10 -8 19 4 37 20 30 38 180 26 212
-7 21 -40 48 -52 45 -2 0 -61 -17 -132 -38z"/>
<path d="M838 1012 c-83 -28 -108 -40 -108 -54 0 -10 5 -18 10 -18 17 0 12
-44 -30 -273 -23 -123 -37 -224 -32 -229 6 -6 62 11 119 36 1 1 9 56 19 123
18 130 26 155 44 137 7 -7 5 -43 -6 -122 -10 -62 -15 -114 -12 -118 3 -3 32 5
64 18 l59 23 22 175 c29 228 31 295 8 320 -23 26 -30 25 -157 -18z"/>
</g>
</svg>
